<svg width="47" height="38" viewBox="0 0 47 38" fill="none" xmlns="http://www.w3.org/2000/svg">
<g filter="url(#filter0_d_102_65)">
<path d="M41 17C42.1046 17 43 16.1046 43 15C43 13.8954 42.1046 13 41 13V17ZM4.58578 13.5858C3.80474 14.3668 3.80474 15.6332 4.58578 16.4142L17.3137 29.1421C18.0948 29.9232 19.3611 29.9232 20.1421 29.1421C20.9232 28.3611 20.9232 27.0948 20.1421 26.3137L8.82843 15L20.1421 3.68629C20.9232 2.90524 20.9232 1.63891 20.1421 0.857864C19.3611 0.0768156 18.0948 0.0768156 17.3137 0.857864L4.58578 13.5858ZM41 13L6 13V17L41 17V13Z" fill="#DBDBDB"/>
</g>
<defs>
<filter id="filter0_d_102_65" x="0" y="0.271973" width="47" height="37.4561" filterUnits="userSpaceOnUse" color-interpolation-filters="sRGB">
<feFlood flood-opacity="0" result="BackgroundImageFix"/>
<feColorMatrix in="SourceAlpha" type="matrix" values="0 0 0 0 0 0 0 0 0 0 0 0 0 0 0 0 0 0 127 0" result="hardAlpha"/>
<feOffset dy="4"/>
<feGaussianBlur stdDeviation="2"/>
<feComposite in2="hardAlpha" operator="out"/>
<feColorMatrix type="matrix" values="0 0 0 0 0 0 0 0 0 0 0 0 0 0 0 0 0 0 0.25 0"/>
<feBlend mode="normal" in2="BackgroundImageFix" result="effect1_dropShadow_102_65"/>
<feBlend mode="normal" in="SourceGraphic" in2="effect1_dropShadow_102_65" result="shape"/>
</filter>
</defs>
</svg>
